<svg width="29" height="24" viewBox="0 0 29 24" fill="none" xmlns="http://www.w3.org/2000/svg">
<path d="M3.35019 0H23.0047C24.8549 0 26.3549 1.49993 26.3549 3.35019V16.5276C26.3549 18.3779 24.8549 19.8778 23.0047 19.8778H9.12797C8.47197 19.8778 7.8304 20.0704 7.28286 20.4317L2.23667 23.7614C1.5718 24.2001 0.677167 24.0168 0.238457 23.3519C0.0829145 23.1162 0 22.8399 0 22.5575V3.35019C0 1.49993 1.49993 0 3.35019 0Z" fill="url(#paint0_linear)"/>
<g filter="url(#filter0_d)">
<path d="M19.6545 12.7307C18.5444 12.7307 17.6444 11.8308 17.6444 10.7206C17.6444 9.61047 18.5444 8.71051 19.6545 8.71051C20.7647 8.71051 21.6646 9.61047 21.6646 10.7206C21.6646 11.8308 20.7647 12.7307 19.6545 12.7307ZM6.70042 12.7307C5.59027 12.7307 4.69031 11.8308 4.69031 10.7206C4.69031 9.61047 5.59027 8.71051 6.70042 8.71051C7.81058 8.71051 8.71054 9.61047 8.71054 10.7206C8.71054 11.8308 7.81058 12.7307 6.70042 12.7307ZM13.1775 12.7307C12.0673 12.7307 11.1674 11.8308 11.1674 10.7206C11.1674 9.61047 12.0673 8.71051 13.1775 8.71051C14.2876 8.71051 15.1876 9.61047 15.1876 10.7206C15.1876 11.8308 14.2876 12.7307 13.1775 12.7307Z" fill="black"/>
</g>
<path d="M19.6545 12.7307C18.5444 12.7307 17.6444 11.8308 17.6444 10.7206C17.6444 9.61047 18.5444 8.71051 19.6545 8.71051C20.7647 8.71051 21.6646 9.61047 21.6646 10.7206C21.6646 11.8308 20.7647 12.7307 19.6545 12.7307ZM6.70042 12.7307C5.59027 12.7307 4.69031 11.8308 4.69031 10.7206C4.69031 9.61047 5.59027 8.71051 6.70042 8.71051C7.81058 8.71051 8.71054 9.61047 8.71054 10.7206C8.71054 11.8308 7.81058 12.7307 6.70042 12.7307ZM13.1775 12.7307C12.0673 12.7307 11.1674 11.8308 11.1674 10.7206C11.1674 9.61047 12.0673 8.71051 13.1775 8.71051C14.2876 8.71051 15.1876 9.61047 15.1876 10.7206C15.1876 11.8308 14.2876 12.7307 13.1775 12.7307Z" fill="url(#paint1_linear)"/>
<defs>
<filter id="filter0_d" x="3.69031" y="7.71051" width="24.9743" height="12.0202" filterUnits="userSpaceOnUse" color-interpolation-filters="sRGB">
<feFlood flood-opacity="0" result="BackgroundImageFix"/>
<feColorMatrix in="SourceAlpha" type="matrix" values="0 0 0 0 0 0 0 0 0 0 0 0 0 0 0 0 0 0 127 0"/>
<feOffset dx="3" dy="3"/>
<feGaussianBlur stdDeviation="2"/>
<feColorMatrix type="matrix" values="0 0 0 0 0 0 0 0 0 0 0 0 0 0 0 0 0 0 0.19 0"/>
<feBlend mode="normal" in2="BackgroundImageFix" result="effect1_dropShadow"/>
<feBlend mode="normal" in="SourceGraphic" in2="effect1_dropShadow" result="shape"/>
</filter>
<linearGradient id="paint0_linear" x1="40.5" y1="-7.5" x2="4.80714" y2="26.5401" gradientUnits="userSpaceOnUse">
<stop stop-color="white"/>
<stop offset="0.826391" stop-color="#B8B6BE"/>
</linearGradient>
<linearGradient id="paint1_linear" x1="12.3523" y1="7.24539" x2="12.3987" y2="13.961" gradientUnits="userSpaceOnUse">
<stop stop-color="white"/>
<stop offset="1" stop-color="white"/>
</linearGradient>
</defs>
</svg>
