<svg width="29" height="36" viewBox="0 0 29 36" fill="none" xmlns="http://www.w3.org/2000/svg">
<path d="M11.2725 11.8424C13.3343 11.8646 9.70439 22.5077 10.0941 27.1346C10.4871 31.8026 15.6813 30.4586 15.3517 27.7713C14.7907 23.2029 17.8511 8.88764 20.9548 8.88764C23.1324 8.88764 18.5429 18.7563 19.4459 25.0758C20.0434 29.2568 25.4666 27.8064 24.9155 25.3274C23.0925 17.123 28.7409 9.23807 28.1079 3.65154C27.831 1.2072 26.3527 0.0118048 24.874 0.000111162C19.6968 -0.0394963 15.6976 10.5183 15.6976 10.5183C15.6976 10.5183 16.114 4.51762 12.0903 4.29733C5.92961 3.95972 -0.169178 19.2916 0.00358577 32.9814C0.058659 37.3488 5.52486 36.6049 5.23743 33.1229C4.70291 26.6472 8.3336 11.811 11.2725 11.8424Z" fill="white"/>
</svg>
