<svg width="36" height="33" viewBox="0 0 36 33" fill="none" xmlns="http://www.w3.org/2000/svg">
<mask id="mask0" mask-type="alpha" maskUnits="userSpaceOnUse" x="0" y="0" width="36" height="33">
<path fill-rule="evenodd" clip-rule="evenodd" d="M7.84867 1.07176L17.9865 -1.52588e-05L28.1244 1.07176L35.9731 11.6079L17.9865 32.553L0 11.6079L7.84867 1.07176Z" fill="white"/>
</mask>
<g mask="url(#mask0)">
<path d="M-0.45752 33.0105H36.4304V-0.457443H-0.45752V33.0105Z" fill="#FDB300"/>
</g>
<mask id="mask1" mask-type="alpha" maskUnits="userSpaceOnUse" x="0" y="11" width="18" height="22">
<path fill-rule="evenodd" clip-rule="evenodd" d="M7.28545 11.6079L17.9865 32.5531L0 11.6079H7.28545Z" fill="white"/>
</mask>
<g mask="url(#mask1)">
<path d="M-0.45752 33.0105H18.4439V11.1505H-0.45752V33.0105Z" fill="#EA6C00"/>
</g>
<mask id="mask2" mask-type="alpha" maskUnits="userSpaceOnUse" x="17" y="11" width="19" height="22">
<path fill-rule="evenodd" clip-rule="evenodd" d="M28.6875 11.6079L17.9865 32.5531L35.973 11.6079H28.6875Z" fill="white"/>
</mask>
<g mask="url(#mask2)">
<path d="M17.5291 33.0105H36.4305V11.1505H17.5291V33.0105Z" fill="#EA6C00"/>
</g>
<mask id="mask3" mask-type="alpha" maskUnits="userSpaceOnUse" x="7" y="11" width="22" height="22">
<path fill-rule="evenodd" clip-rule="evenodd" d="M7.2854 11.6079H28.6876L17.9865 32.5531L7.2854 11.6079Z" fill="white"/>
</mask>
<g mask="url(#mask3)">
<path d="M6.828 33.0105H29.145V11.1505H6.828V33.0105Z" fill="#FDAD00"/>
</g>
<mask id="mask4" mask-type="alpha" maskUnits="userSpaceOnUse" x="7" y="0" width="11" height="12">
<path fill-rule="evenodd" clip-rule="evenodd" d="M17.9865 -1.52588e-05L7.84862 1.07176L7.2854 11.6079L17.9865 -1.52588e-05Z" fill="white"/>
</mask>
<g mask="url(#mask4)">
<path d="M6.828 12.0654H18.4439V-0.457443H6.828V12.0654Z" fill="#FDD231"/>
</g>
<mask id="mask5" mask-type="alpha" maskUnits="userSpaceOnUse" x="17" y="0" width="12" height="12">
<path fill-rule="evenodd" clip-rule="evenodd" d="M17.9865 -1.52588e-05L28.1243 1.07176L28.6875 11.6079L17.9865 -1.52588e-05Z" fill="white"/>
</mask>
<g mask="url(#mask5)">
<path d="M17.5291 12.0654H29.145V-0.457443H17.5291V12.0654Z" fill="#FDD231"/>
</g>
<mask id="mask6" mask-type="alpha" maskUnits="userSpaceOnUse" x="28" y="1" width="8" height="11">
<path fill-rule="evenodd" clip-rule="evenodd" d="M35.9729 11.6079L28.1243 1.07175L28.6875 11.6079H35.9729Z" fill="white"/>
</mask>
<g mask="url(#mask6)">
<path d="M27.6669 12.0654H36.4304V0.614349H27.6669V12.0654Z" fill="#FDAD00"/>
</g>
<mask id="mask7" mask-type="alpha" maskUnits="userSpaceOnUse" x="0" y="1" width="8" height="11">
<path fill-rule="evenodd" clip-rule="evenodd" d="M0 11.6079L7.84867 1.07175L7.28545 11.6079H0Z" fill="white"/>
</mask>
<g mask="url(#mask7)">
<path d="M-0.45752 12.0654H8.30602V0.614349H-0.45752V12.0654Z" fill="#FDAD00"/>
</g>
<mask id="mask8" mask-type="alpha" maskUnits="userSpaceOnUse" x="7" y="0" width="22" height="12">
<path fill-rule="evenodd" clip-rule="evenodd" d="M17.9865 -1.52588e-05L7.2854 11.6079H28.6876L17.9865 -1.52588e-05Z" fill="white"/>
</mask>
<g mask="url(#mask8)">
<path d="M6.828 12.0654H29.145V-0.457443H6.828V12.0654Z" fill="#FEEEB7"/>
</g>
</svg>
