<svg width="90" height="92" viewBox="0 0 90 92" fill="none" xmlns="http://www.w3.org/2000/svg">
<g filter="url(#filter0_d)">
<path d="M42 21.7321C43.8564 20.6603 46.1436 20.6603 48 21.7321L54.1244 25.2679C55.9808 26.3397 57.1244 28.3205 57.1244 30.4641V37.5359C57.1244 39.6795 55.9808 41.6603 54.1244 42.732L48 46.2679C46.1436 47.3397 43.8564 47.3397 42 46.268L35.8756 42.7321C34.0192 41.6603 32.8756 39.6795 32.8756 37.5359V30.4641C32.8756 28.3205 34.0192 26.3397 35.8756 25.2679L42 21.7321Z" fill="#5B3FFF"/>
</g>
<path d="M40.636 31.628V33.416H38.86V34.796H40.636V36.572H42.028V34.796H43.804V33.416H42.028V31.628H40.636ZM47.2522 29.744C45.6682 29.744 44.6602 30.764 44.6602 32.408H46.3162C46.3162 31.676 46.7122 31.28 47.2762 31.28C47.8522 31.28 48.1762 31.652 48.1762 32.264C48.1762 32.924 47.7802 33.248 47.0002 33.248H46.5202V34.664H47.0242C47.9362 34.664 48.4642 35.048 48.4642 35.816C48.4642 36.488 48.0202 36.92 47.3842 36.92C46.6522 36.92 46.1722 36.512 46.1602 35.732H44.5162C44.5162 37.448 45.5842 38.456 47.3242 38.456C49.0162 38.456 50.1202 37.472 50.1202 35.888C50.1202 34.796 49.5442 34.16 48.7882 33.932C49.3642 33.692 49.8322 33.104 49.8322 32.192C49.8322 31.484 49.6042 30.896 49.1362 30.44C48.6802 29.972 48.0562 29.744 47.2522 29.744Z" fill="white"/>
<defs>
<filter id="filter0_d" x="0.87561" y="0.9282" width="88.2487" height="90.1436" filterUnits="userSpaceOnUse" color-interpolation-filters="sRGB">
<feFlood flood-opacity="0" result="BackgroundImageFix"/>
<feColorMatrix in="SourceAlpha" type="matrix" values="0 0 0 0 0 0 0 0 0 0 0 0 0 0 0 0 0 0 127 0"/>
<feOffset dy="12"/>
<feGaussianBlur stdDeviation="16"/>
<feColorMatrix type="matrix" values="0 0 0 0 0.186114 0 0 0 0 0.212231 0 0 0 0 0.349345 0 0 0 0.06 0"/>
<feBlend mode="normal" in2="BackgroundImageFix" result="effect1_dropShadow"/>
<feBlend mode="normal" in="SourceGraphic" in2="effect1_dropShadow" result="shape"/>
</filter>
</defs>
</svg>
